<svg width="512" height="512" viewBox="0 0 512 512" fill="none" xmlns="http://www.w3.org/2000/svg">
    <rect width="512" height="512" rx="100" fill="url(#paint0_linear)" />

    <path d="M360 120H184C166.327 120 152 134.327 152 152V360C152 377.673 166.327 392 184 392H328L360 360V120Z"
        fill="white" fill-opacity="0.15" />
    <path d="M360 120H184C166.327 120 152 134.327 152 152V360C152 377.673 166.327 392 184 392H328L360 360V120Z"
        stroke="white" stroke-width="24" stroke-linejoin="round" />

    <circle cx="216" cy="200" r="32" fill="white" />
    <path d="M152 320L224 248L288 312L320 280L360 320V360H152V320Z" fill="white" />

    <defs>
        <linearGradient id="paint0_linear" x1="0" y1="0" x2="512" y2="512" gradientUnits="userSpaceOnUse">
            <stop stop-color="#6366F1" />
            <stop offset="1" stop-color="#8B5CF6" />
        </linearGradient>
    </defs>
</svg>